<svg xmlns="http://www.w3.org/2000/svg" xmlns:xlink="http://www.w3.org/1999/xlink" width="315" height="187" viewBox="0 0 315 187">
  <defs>
    <clipPath id="clip-path">
      <path id="Path_2753" data-name="Path 2753" d="M5.911,0H286.089C289.354,0,292,2.316,292,5.173V155.178c0,2.857-2.646,5.173-5.911,5.173H5.911c-3.265,0-5.911-2.316-5.911-5.173V5.173C0,2.316,2.646,0,5.911,0Z" fill="#fff" stroke="#c4c4c4" stroke-width="1"/>
    </clipPath>
    <clipPath id="clip-path-2">
      <rect id="Rectangle_792" data-name="Rectangle 792" width="292.752" height="189.412" fill="none"/>
    </clipPath>
  </defs>
  <g id="Group_17042" data-name="Group 17042" transform="translate(-398 -195)">
    <g id="Group_16516" data-name="Group 16516" transform="translate(398 195)">
      <rect id="Rectangle_610" data-name="Rectangle 610" width="315" height="187" rx="5" transform="translate(0)" fill="#fff"/>
    </g>
    <g id="Group_17035" data-name="Group 17035" transform="translate(410 208)">
      <g id="Mask_Group_39" data-name="Mask Group 39" clip-path="url(#clip-path)">
        <g id="Group_17029" data-name="Group 17029" transform="translate(0 0)">
          <g id="Group_17033" data-name="Group 17033" clip-path="url(#clip-path-2)">
            <path id="Path_2757" data-name="Path 2757" d="M0,0H512.992V162.5H0Z" transform="translate(-0.358 -0.377)" fill="#e1e1e1"/>
            <g id="Group_17029-2" data-name="Group 17029" transform="translate(38.406 -0.415)" opacity="0.7">
              <rect id="Rectangle_784" data-name="Rectangle 784" width="0.394" height="0.875" transform="translate(0 0)" fill="#fff" stroke="#fff" stroke-miterlimit="10" stroke-width="1"/>
              <path id="Path_2749" data-name="Path 2749" d="M98.786,247.363h-.394v-1.741h.394Zm0-3.482h-.394V242.14h.394Zm0-3.483h-.394v-1.741h.394Zm0-3.482h-.394v-1.742h.394Zm0-3.483h-.394v-1.741h.394Zm0-3.482h-.394v-1.742h.394Zm0-3.483h-.394V224.73h.394Zm0-3.482h-.394v-1.741h.394Zm0-3.482h-.394v-1.741h.394Zm0-3.483h-.394v-1.741h.394Zm0-3.482h-.394V210.8h.394Zm0-3.483h-.394v-1.741h.394Zm0-3.482h-.394v-1.741h.394Zm0-3.483h-.394v-1.741h.394Zm0-3.482h-.394v-1.741h.394Zm0-3.482h-.394V193.39h.394Zm0-3.482h-.394v-1.741h.394Zm0-3.482h-.394v-1.741h.394Zm0-3.482h-.394v-1.742h.394Zm0-3.482h-.394v-1.741h.394Zm0-3.483h-.394v-1.741h.394Zm0-3.482h-.394V172.5h.394Zm0-3.483h-.394v-1.741h.394Zm0-3.482h-.394v-1.741h.394Zm0-3.482h-.394v-1.741h.394Zm0-3.482h-.394v-1.741h.394Zm0-3.482h-.394v-1.741h.394Zm0-3.482h-.394V151.6h.394Zm0-3.482h-.394v-1.741h.394Zm0-3.482h-.394V144.64h.394Zm0-3.483h-.394v-1.741h.394Zm0-3.482h-.394v-1.742h.394Zm0-3.483h-.394v-1.741h.394Zm0-3.482h-.394v-1.742h.394Zm0-3.483h-.394V127.23h.394Zm0-3.482h-.394v-1.741h.394Zm0-3.482h-.394v-1.741h.394Zm0-3.482h-.394v-1.741h.394Zm0-3.482h-.394V113.3h.394Zm0-3.482h-.394v-1.741h.394Zm0-3.482h-.394v-1.741h.394Zm0-3.482h-.394v-1.741h.394Zm0-3.482h-.394V99.373h.394Zm0-3.482h-.394V95.89h.394Zm0-3.482h-.394V92.409h.394Zm0-3.482h-.394V88.926h.394Zm0-3.482h-.394V85.444h.394Zm0-3.482h-.394V81.962h.394Zm0-3.482h-.394V78.48h.394Zm0-3.482h-.394V75h.394Zm0-3.482h-.394V71.516h.394Zm0-3.482h-.394V68.033h.394Zm0-3.482h-.394V64.551h.394Zm0-3.482h-.394V61.069h.394Zm0-3.482h-.394V57.587h.394Zm0-3.482h-.394V54.1h.394Zm0-3.482h-.394V50.623h.394Zm0-3.482h-.394V47.141h.394Zm0-3.482h-.394V43.659h.394Zm0-3.482h-.394V40.176h.394Zm0-3.482h-.394V36.694h.394Zm0-3.482h-.394V33.212h.394Zm0-3.482h-.394V29.73h.394Zm0-3.482h-.394V26.248h.394Zm0-3.482h-.394V22.766h.394Zm0-3.482h-.394V19.283h.394Zm0-3.482h-.394V15.8h.394Zm0-3.482h-.394V12.319h.394Zm0-3.482h-.394V8.837h.394Z" transform="translate(-98.392 -6.221)" fill="#fff" stroke="#fff" stroke-miterlimit="10" stroke-width="1"/>
              <rect id="Rectangle_785" data-name="Rectangle 785" width="0.394" height="0.875" transform="translate(0 242.884)" fill="#fff" stroke="#fff" stroke-miterlimit="10" stroke-width="1"/>
            </g>
            <g id="Group_17030" data-name="Group 17030" transform="translate(74.259 -0.415)" opacity="0.7">
              <rect id="Rectangle_786" data-name="Rectangle 786" width="0.394" height="0.875" transform="translate(0 0)" fill="#fff" stroke="#fff" stroke-miterlimit="10" stroke-width="1"/>
              <path id="Path_2750" data-name="Path 2750" d="M189.785,247.363h-.394v-1.741h.394Zm0-3.482h-.394V242.14h.394Zm0-3.483h-.394v-1.741h.394Zm0-3.482h-.394v-1.742h.394Zm0-3.483h-.394v-1.741h.394Zm0-3.482h-.394v-1.742h.394Zm0-3.483h-.394V224.73h.394Zm0-3.482h-.394v-1.741h.394Zm0-3.482h-.394v-1.741h.394Zm0-3.483h-.394v-1.741h.394Zm0-3.482h-.394V210.8h.394Zm0-3.483h-.394v-1.741h.394Zm0-3.482h-.394v-1.741h.394Zm0-3.483h-.394v-1.741h.394Zm0-3.482h-.394v-1.741h.394Zm0-3.482h-.394V193.39h.394Zm0-3.482h-.394v-1.741h.394Zm0-3.482h-.394v-1.741h.394Zm0-3.482h-.394v-1.742h.394Zm0-3.482h-.394v-1.741h.394Zm0-3.483h-.394v-1.741h.394Zm0-3.482h-.394V172.5h.394Zm0-3.483h-.394v-1.741h.394Zm0-3.482h-.394v-1.741h.394Zm0-3.482h-.394v-1.741h.394Zm0-3.482h-.394v-1.741h.394Zm0-3.482h-.394v-1.741h.394Zm0-3.482h-.394V151.6h.394Zm0-3.482h-.394v-1.741h.394Zm0-3.482h-.394V144.64h.394Zm0-3.483h-.394v-1.741h.394Zm0-3.482h-.394v-1.742h.394Zm0-3.483h-.394v-1.741h.394Zm0-3.482h-.394v-1.742h.394Zm0-3.483h-.394V127.23h.394Zm0-3.482h-.394v-1.741h.394Zm0-3.482h-.394v-1.741h.394Zm0-3.482h-.394v-1.741h.394Zm0-3.482h-.394V113.3h.394Zm0-3.482h-.394v-1.741h.394Zm0-3.482h-.394v-1.741h.394Zm0-3.482h-.394v-1.741h.394Zm0-3.482h-.394V99.373h.394Zm0-3.482h-.394V95.89h.394Zm0-3.482h-.394V92.409h.394Zm0-3.482h-.394V88.926h.394Zm0-3.482h-.394V85.444h.394Zm0-3.482h-.394V81.962h.394Zm0-3.482h-.394V78.48h.394Zm0-3.482h-.394V75h.394Zm0-3.482h-.394V71.516h.394Zm0-3.482h-.394V68.033h.394Zm0-3.482h-.394V64.551h.394Zm0-3.482h-.394V61.069h.394Zm0-3.482h-.394V57.587h.394Zm0-3.482h-.394V54.1h.394Zm0-3.482h-.394V50.623h.394Zm0-3.482h-.394V47.141h.394Zm0-3.482h-.394V43.659h.394Zm0-3.482h-.394V40.176h.394Zm0-3.482h-.394V36.694h.394Zm0-3.482h-.394V33.212h.394Zm0-3.482h-.394V29.73h.394Zm0-3.482h-.394V26.248h.394Zm0-3.482h-.394V22.766h.394Zm0-3.482h-.394V19.283h.394Zm0-3.482h-.394V15.8h.394Zm0-3.482h-.394V12.319h.394Zm0-3.482h-.394V8.837h.394Z" transform="translate(-189.391 -6.221)" fill="#fff" stroke="#fff" stroke-miterlimit="10" stroke-width="1"/>
              <rect id="Rectangle_787" data-name="Rectangle 787" width="0.394" height="0.875" transform="translate(0 242.884)" fill="#fff" stroke="#fff" stroke-miterlimit="10" stroke-width="1"/>
            </g>
            <g id="Group_17031" data-name="Group 17031" transform="translate(110.472 -0.342)" opacity="0.7">
              <rect id="Rectangle_788" data-name="Rectangle 788" width="0.394" height="0.875" transform="translate(0 0)" fill="#fff" stroke="#fff" stroke-miterlimit="10" stroke-width="1"/>
              <path id="Path_2751" data-name="Path 2751" d="M281.7,247.614h-.394v-1.741h.394Zm0-3.482h-.394v-1.742h.394Zm0-3.483h-.394v-1.741h.394Zm0-3.482h-.394v-1.742h.394Zm0-3.483h-.394v-1.741h.394Zm0-3.482h-.394v-1.742h.394Zm0-3.483h-.394V224.98h.394Zm0-3.483h-.394V221.5h.394Zm0-3.482h-.394v-1.741h.394Zm0-3.483h-.394v-1.741h.394Zm0-3.482h-.394v-1.742h.394Zm0-3.483h-.394v-1.741h.394Zm0-3.482h-.394v-1.742h.394Zm0-3.483h-.394v-1.741h.394Zm0-3.482h-.394v-1.741h.394Zm0-3.482h-.394v-1.741h.394Zm0-3.483h-.394v-1.741h.394Zm0-3.482h-.394v-1.741h.394Zm0-3.483h-.394v-1.741h.394Zm0-3.482h-.394v-1.741h.394Zm0-3.483h-.394V176.23h.394Zm0-3.482h-.394v-1.741h.394Zm0-3.482h-.394v-1.741h.394Zm0-3.482h-.394v-1.741h.394Zm0-3.482h-.394V162.3h.394Zm0-3.482h-.394v-1.742h.394Zm0-3.482h-.394v-1.741h.394Zm0-3.483h-.394v-1.741h.394Zm0-3.482h-.394v-1.741h.394Zm0-3.482h-.394v-1.741h.394Zm0-3.482h-.394v-1.741h.394Zm0-3.482h-.394v-1.741h.394Zm0-3.482h-.394v-1.742h.394Zm0-3.482h-.394v-1.741h.394Zm0-3.482h-.394V127.48h.394Zm0-3.482h-.394V124h.394Zm0-3.482h-.394v-1.741h.394Zm0-3.482h-.394v-1.741h.394Zm0-3.483h-.394v-1.741h.394Zm0-3.482h-.394v-1.741h.394Zm0-3.482h-.394v-1.741h.394Zm0-3.482h-.394v-1.741h.394Zm0-3.482h-.394V99.623h.394Zm0-3.483h-.394V96.141h.394Zm0-3.482h-.394V92.659h.394Zm0-3.482h-.394V89.177h.394Zm0-3.482h-.394V85.694h.394Zm0-3.482h-.394V82.212h.394Zm0-3.482h-.394V78.73h.394Zm0-3.482h-.394V75.248h.394Zm0-3.482h-.394V71.766h.394Zm0-3.482h-.394V68.284h.394Zm0-3.482h-.394V64.8h.394Zm0-3.482h-.394V61.319h.394Zm0-3.482h-.394V57.837h.394Zm0-3.482h-.394V54.355h.394Zm0-3.482h-.394V50.873h.394Zm0-3.482h-.394V47.391h.394Zm0-3.482h-.394V43.909h.394Zm0-3.482h-.394V40.427h.394Zm0-3.482h-.394V36.944h.394Zm0-3.482h-.394V33.462h.394Zm0-3.482h-.394V29.98h.394Zm0-3.482h-.394V26.5h.394Zm0-3.482h-.394V23.016h.394Zm0-3.482h-.394V19.534h.394Zm0-3.482h-.394V16.051h.394Zm0-3.482h-.394V12.569h.394Zm0-3.482h-.394V9.087h.394Z" transform="translate(-281.308 -6.471)" fill="#fff" stroke="#fff" stroke-miterlimit="10" stroke-width="1"/>
              <rect id="Rectangle_789" data-name="Rectangle 789" width="0.394" height="0.875" transform="translate(0 242.885)" fill="#fff" stroke="#fff" stroke-miterlimit="10" stroke-width="1"/>
            </g>
            <g id="Group_17032" data-name="Group 17032" transform="translate(146.784 -0.391)" opacity="0.7">
              <rect id="Rectangle_790" data-name="Rectangle 790" width="0.394" height="0.875" transform="translate(0 0)" fill="#fff" stroke="#fff" stroke-miterlimit="10" stroke-width="1"/>
              <path id="Path_2752" data-name="Path 2752" d="M373.868,247.448h-.394v-1.741h.394Zm0-3.482h-.394v-1.742h.394Zm0-3.483h-.394v-1.741h.394Zm0-3.482h-.394V235.26h.394Zm0-3.483h-.394v-1.741h.394Zm0-3.482h-.394V228.3h.394Zm0-3.483h-.394v-1.741h.394Zm0-3.483h-.394v-1.741h.394Zm0-3.482h-.394V217.85h.394Zm0-3.483h-.394v-1.741h.394Zm0-3.482h-.394v-1.742h.394Zm0-3.483h-.394V207.4h.394Zm0-3.482h-.394v-1.742h.394Zm0-3.483h-.394v-1.741h.394Zm0-3.482h-.394v-1.741h.394Zm0-3.482h-.394v-1.741h.394Zm0-3.483h-.394v-1.741h.394Zm0-3.482h-.394v-1.741h.394Zm0-3.483h-.394v-1.741h.394Zm0-3.482h-.394v-1.742h.394Zm0-3.483h-.394v-1.741h.394Zm0-3.482h-.394v-1.741h.394Zm0-3.482h-.394V169.1h.394Zm0-3.482h-.394v-1.741h.394Zm0-3.482h-.394v-1.741h.394Zm0-3.483h-.394v-1.741h.394Zm0-3.482h-.394v-1.741h.394Zm0-3.483h-.394v-1.741h.394Zm0-3.482h-.394v-1.741h.394Zm0-3.482h-.394v-1.741h.394Zm0-3.482h-.394v-1.741h.394Zm0-3.482h-.394v-1.741h.394Zm0-3.482h-.394v-1.742h.394Zm0-3.482h-.394V130.8h.394Zm0-3.482h-.394v-1.742h.394Zm0-3.482h-.394v-1.741h.394Zm0-3.483h-.394V120.35h.394Zm0-3.482h-.394v-1.741h.394Zm0-3.483h-.394v-1.741h.394Zm0-3.482h-.394V109.9h.394Zm0-3.483h-.394v-1.741h.394Zm0-3.482h-.394v-1.741h.394Zm0-3.482h-.394V99.457h.394Zm0-3.482h-.394V95.975h.394Zm0-3.482h-.394V92.493h.394Zm0-3.482h-.394V89.011h.394Zm0-3.482h-.394V85.528h.394Zm0-3.482h-.394V82.046h.394Zm0-3.482h-.394V78.564h.394Zm0-3.482h-.394V75.082h.394Zm0-3.482h-.394V71.6h.394Zm0-3.482h-.394V68.118h.394Zm0-3.482h-.394V64.635h.394Zm0-3.482h-.394V61.153h.394Zm0-3.482h-.394V57.671h.394Zm0-3.482h-.394V54.189h.394Zm0-3.482h-.394V50.707h.394Zm0-3.482h-.394V47.225h.394Zm0-3.482h-.394V43.743h.394Zm0-3.482h-.394V40.26h.394Zm0-3.482h-.394V36.778h.394Zm0-3.482h-.394V33.3h.394Zm0-3.482h-.394V29.814h.394Zm0-3.482h-.394V26.332h.394Zm0-3.482h-.394V22.85h.394Zm0-3.482h-.394V19.367h.394Zm0-3.482h-.394V15.885h.394Zm0-3.482h-.394V12.4h.394Zm0-3.482h-.394V8.921h.394Z" transform="translate(-373.474 -6.305)" fill="#fff" stroke="#fff" stroke-miterlimit="10" stroke-width="1"/>
              <rect id="Rectangle_791" data-name="Rectangle 791" width="0.394" height="0.875" transform="translate(0 242.885)" fill="#fff" stroke="#fff" stroke-miterlimit="10" stroke-width="1"/>
            </g>
            <line id="Line_25" data-name="Line 25" x1="0.394" y2="243.76" transform="translate(38.238 -0.609)" fill="#fff" stroke="#fff" stroke-miterlimit="10" stroke-width="1.5"/>
            <line id="Line_26" data-name="Line 26" x1="0.394" y2="243.76" transform="translate(74.09 -0.317)" fill="#fff" stroke="#fff" stroke-miterlimit="10" stroke-width="1.5"/>
            <line id="Line_27" data-name="Line 27" x1="0.394" y2="243.76" transform="translate(110.337 -0.317)" fill="#fff" stroke="#fff" stroke-miterlimit="10" stroke-width="1.5"/>
            <line id="Line_29" data-name="Line 29" x1="0.394" y2="243.76" transform="translate(184.012 -0.608)" fill="#fff" stroke="#fff" stroke-miterlimit="10" stroke-width="1.5"/>
            <line id="Line_30" data-name="Line 30" x1="0.394" y2="243.76" transform="translate(219.865 -0.706)" fill="#fff" stroke="#fff" stroke-miterlimit="10" stroke-width="1.5"/>
            <line id="Line_31" data-name="Line 31" x1="0.394" y2="243.76" transform="translate(256.111 -0.706)" fill="#fff" stroke="#fff" stroke-miterlimit="10" stroke-width="1.5"/>
            <line id="Line_32" data-name="Line 32" x1="0.394" y2="243.76" transform="translate(292.752 -0.803)" fill="#fff" stroke="#fff" stroke-miterlimit="10" stroke-width="3"/>
            <line id="Line_33" data-name="Line 33" x2="511.993" y2="0.292" transform="translate(0.732 26.597)" fill="#fff" stroke="#fff" stroke-miterlimit="10" stroke-width="1.5"/>
            <line id="Line_34" data-name="Line 34" x2="511.993" y2="0.292" transform="translate(0.338 53.44)" fill="#fff" stroke="#fff" stroke-miterlimit="10" stroke-width="1.5"/>
            <line id="Line_35" data-name="Line 35" x2="511.993" y2="0.292" transform="translate(0.732 81.303)" fill="#fff" stroke="#7f3486" stroke-miterlimit="10" stroke-width="2"/>
            <path id="Path_2755" data-name="Path 2755" d="M0,0,511.993.292" transform="translate(0.929 108.146)" fill="#fff" stroke="#fff" stroke-width="1.5"/>
            <line id="Line_37" data-name="Line 37" x2="511.993" y2="0.292" transform="translate(0.732 134.697)" fill="#fff" stroke="#fff" stroke-miterlimit="10" stroke-width="1.5"/>
            <line id="Line_38" data-name="Line 38" x2="511.993" y2="0.292" transform="translate(0.338 161.831)" fill="#fff" stroke="#fff" stroke-miterlimit="10" stroke-width="1.5"/>
            <line id="Line_39" data-name="Line 39" x2="511.993" y2="0.292" transform="translate(0.732 189.258)" fill="#fff" stroke="#fff" stroke-miterlimit="10" stroke-width="3"/>
            <line id="Line_40" data-name="Line 40" x2="511.993" y2="0.292" transform="translate(0.667 216.392)" fill="#fff" stroke="#fff" stroke-miterlimit="10" stroke-width="3"/>
            <path id="Path_2756" data-name="Path 2756" d="M.394,0,0,237.2" transform="translate(146.583 -0.592)" fill="#7f3486" stroke="#7f3486" stroke-width="2"/>
          </g>
        </g>
      </g>
      <g id="Group_17034" data-name="Group 17034" transform="translate(186.232 50.716)">
        <g id="Ellipse_41" data-name="Ellipse 41" transform="translate(31)" fill="#7f3486" stroke="#7f3486" stroke-width="1">
          <circle cx="2.5" cy="2.5" r="2.5" stroke="none"/>
          <circle cx="2.5" cy="2.5" r="2" fill="none"/>
        </g>
        <g id="Ellipse_44" data-name="Ellipse 44" transform="translate(31 28)" fill="#7f3486" stroke="#7f3486" stroke-width="1">
          <circle cx="2.5" cy="2.5" r="2.5" stroke="none"/>
          <circle cx="2.5" cy="2.5" r="2" fill="none"/>
        </g>
        <g id="Ellipse_42" data-name="Ellipse 42" transform="translate(-4)" fill="#7f3486" stroke="#7f3486" stroke-width="1">
          <circle cx="2.5" cy="2.5" r="2.5" stroke="none"/>
          <circle cx="2.5" cy="2.5" r="2" fill="none"/>
        </g>
        <g id="Ellipse_43" data-name="Ellipse 43" transform="translate(-4 28)" fill="#7f3486" stroke="#7f3486" stroke-width="1">
          <circle cx="2.5" cy="2.5" r="2.5" stroke="none"/>
          <circle cx="2.5" cy="2.5" r="2" fill="none"/>
        </g>
      </g>
    </g>
  </g>
</svg>
