<svg xmlns="http://www.w3.org/2000/svg" width="315" height="187" viewBox="0 0 315 187">
  <g id="Group_16926" data-name="Group 16926" transform="translate(-398 -195)">
    <g id="Group_16521" data-name="Group 16521" transform="translate(398 195)">
      <g id="Group_16516" data-name="Group 16516" transform="translate(0)">
        <rect id="Rectangle_610" data-name="Rectangle 610" width="315" height="187" rx="5" fill="#fff"/>
      </g>
    </g>
    <g id="Group_16924" data-name="Group 16924" transform="translate(409 210)">
      <g id="Group_16588" data-name="Group 16588" transform="translate(0 0)">
        <g id="Group_16516-2" data-name="Group 16516" transform="translate(0)">
          <rect id="Rectangle_610-2" data-name="Rectangle 610" width="292" height="157" rx="5" fill="#fff" stroke="#c4c4c4" stroke-width="1"/>
        </g>
      </g>
      <g id="Group_16589" data-name="Group 16589" transform="translate(0 132)">
        <g id="Group_16516-3" data-name="Group 16516">
          <path id="Rectangle_610-3" data-name="Rectangle 610" d="M0,0H292a0,0,0,0,1,0,0V24a5,5,0,0,1-5,5H5a5,5,0,0,1-5-5V0A0,0,0,0,1,0,0Z" transform="translate(0 -4)" fill="#f3f3f3"/>
        </g>
      </g>
      <text id="Sullivan_has_become_one_of_the_most_talked_about_magazine_writers_of_the_last_few_years._This_piece_which_you_can_read_online_at_the_Paris_Review_and_was_collected_in_his_highly_recommended_book_Pulphead_is_one_of_his_best._It_discusses_with_such_grac" data-name="Sullivan has become one of the most talked about magazine writers of the last few years. This piece, which you can read online at the Paris Review, and was collected in his highly recommended book, Pulphead, is one of his best. It discusses, with such grac" transform="translate(15 12)" fill="#707070" font-size="8" font-family="SFProText-Heavy, SF Pro Text" font-weight="800"><tspan x="0" y="8">Sullivan </tspan><tspan y="8" font-family="SFProText-Regular, SF Pro Text" font-weight="400">has become one of the most talked about magazine writers </tspan><tspan x="0" y="22" font-family="SFProText-Regular, SF Pro Text" font-weight="400">of the last few years. This piece, which you can read online at the </tspan><tspan x="0" y="36" font-family="SFProText-Regular, SF Pro Text" font-weight="400">Paris Review, and was collected in his highly recommended book, </tspan><tspan x="0" y="50" font-family="SFProText-Regular, SF Pro Text" font-weight="400">Pulphead, is one of his best. It discusses, with such grace, being </tspan><tspan x="0" y="64" font-family="SFProText-Regular, SF Pro Text" font-weight="400">mentored in his twenties by once-famous Southern Renaissance </tspan><tspan x="0" y="78" font-family="SFProText-Regular, SF Pro Text" font-weight="400">writer Andrew Lytle.</tspan></text>
      <g id="Group_16934" data-name="Group 16934" transform="translate(59)">
        <g id="font" transform="translate(112 136.97)">
          <g id="Group_16590" data-name="Group 16590">
            <path id="Path_2687" data-name="Path 2687" d="M11.572,36.221,6.741,25H6L1.373,36.221H0V37H3.984v-.779h-1.8l1.19-2.883H7.769L9.01,36.221H7.77V37h4.98v-.779ZM3.7,32.558l1.828-4.429,1.907,4.429Z" transform="translate(0 -25)" fill="#707070"/>
          </g>
        </g>
        <g id="bullet-list" transform="translate(148 137.395)">
          <path id="path-1_337_" d="M87.706,175.412h9.723v1.945H87.706Z" transform="translate(-85.429 -170.384)" fill="#707070"/>
          <path id="path-1_336_" d="M87.706,321.588h9.723v1.945H87.706Z" transform="translate(-85.429 -311.533)" fill="#707070"/>
          <path id="path-1_335_" d="M87.706,29.235h9.723V31.18H87.706Z" transform="translate(-85.429 -29.235)" fill="#707070"/>
          <path id="path-2_23_" d="M0,29.235H1.768V31.18H0Z" transform="translate(0 -29.235)" fill="#707070"/>
          <path id="path-2_22_" d="M0,175.412H1.768v1.945H0Z" transform="translate(0 -170.384)" fill="#707070"/>
          <path id="path-2_21_" d="M0,321.588H1.768v1.945H0Z" transform="translate(0 -311.533)" fill="#707070"/>
        </g>
        <path id="Path_2688" data-name="Path 2688" d="M29.493,6.445A4.225,4.225,0,0,0,27.217,5.3,9.6,9.6,0,0,0,28.5,4.7a2.694,2.694,0,0,0,.809-.82,1.9,1.9,0,0,0,.273-1A2.53,2.53,0,0,0,29.4,1.93a2.372,2.372,0,0,0-.554-.813,3.212,3.212,0,0,0-.869-.594,5.812,5.812,0,0,0-.818-.3A7,7,0,0,0,25.53.008H24.9q-.17,0-.345,0l-.183,0-.119,0-.119,0-.384.008-3.239.1L18.294.164l.034.648q.716.086.972.1a1.4,1.4,0,0,1,.588.117q.094.063.1.094a2.574,2.574,0,0,1,.094.852q.034,1.156.077,3.156l.017,3.883a11.121,11.121,0,0,1-.077,1.516,1.049,1.049,0,0,1-.179.4,5.084,5.084,0,0,1-1.048.242q-.2.023-.579.094L18.277,12q2.037-.063,2.318-.086,1.824-.1,2.54-.086l1.679.031a8.73,8.73,0,0,0,1.688-.086,7.3,7.3,0,0,0,1.73-.469,4,4,0,0,0,1.193-.844,2.563,2.563,0,0,0,.605-.914,3.607,3.607,0,0,0,.247-1.258A2.621,2.621,0,0,0,29.493,6.445ZM22.82.906A7.58,7.58,0,0,1,23.928.8a3.385,3.385,0,0,1,2.173.586,1.807,1.807,0,0,1,.724,1.461,1.949,1.949,0,0,1-.758,1.75,4.067,4.067,0,0,1-2.25.508,6.489,6.489,0,0,1-.929-.055q-.009-.266-.009-.6l.009-.766q.008-1.226-.051-2.18Q22.82,1.25,22.82.906ZM27.081,9.93a2.121,2.121,0,0,1-1.04.883,4.573,4.573,0,0,1-1.841.32,3.336,3.336,0,0,1-1.193-.25.941.941,0,0,1-.1-.344L22.879,8.43l.009-1.352V5.953a3.126,3.126,0,0,1,.861-.078,6.553,6.553,0,0,1,2.105.25,2.427,2.427,0,0,1,1.2.984,2.476,2.476,0,0,1,.349,1.406A2.75,2.75,0,0,1,27.081,9.93Z" transform="translate(-3.277 136.97)" fill="#707070"/>
        <path id="Path_2689" data-name="Path 2689" d="M80.986.02q-.28.02-.544.035-1.183.07-1.71.07-.272,0-.583-.016L75.615,0l-.152.8a3.015,3.015,0,0,0,.3.031,3.09,3.09,0,0,1,1.151.219v.3l-.064.391L76.678,2.8l-.128.492-.232,1.227a.782.782,0,0,1-.028.09q-.028.082-.072.238t-.1.363q-.056.207-.128.523t-.136.66l-.1.5-.448,2.094L75.1,10.07a1.781,1.781,0,0,1-.328.789,4.817,4.817,0,0,1-.927.3l-.615.156-.136.664q.192-.016.783-.07,1.063-.094,1.391-.086l1.583.016q1.007.1,1.159.133a1.648,1.648,0,0,0,.224.023q.144,0,.336-.016a1.291,1.291,0,0,1,.184-.008q.016-.078.072-.32a2.658,2.658,0,0,0,.056-.453q-.24-.039-.528-.078a8.192,8.192,0,0,1-.951-.164.59.59,0,0,1-.008-.211l.1-.352.344-1.836.3-1.234L78.62,4.9q.176-.836.528-2.391.032-.3.1-.641a4.6,4.6,0,0,1,.192-.688A6.442,6.442,0,0,1,80.25.938,8.057,8.057,0,0,0,81.122.7q.048-.172.1-.4a2.8,2.8,0,0,0,.048-.3Z" transform="translate(-23.089 137.395)" fill="#707070"/>
        <g id="Group_16591" data-name="Group 16591" transform="translate(80 137.395)">
          <path id="Path_2690" data-name="Path 2690" d="M58.471,409.294h9v1.5h-9Z" transform="translate(-58.47 -398.794)" fill="#707070"/>
          <path id="Path_2691" data-name="Path 2691" d="M64.471,0V1.5h.75V6a2.25,2.25,0,1,1-4.5,0V1.5h.75V0h-3V1.5h.75V6a3.75,3.75,0,1,0,7.5,0V1.5h.75V0Z" transform="translate(-58.471 0)" fill="#707070"/>
        </g>
      </g>
    </g>
  </g>
</svg>
